# xmcd CD database file
#
# Track frame offsets:
#	150
#	16425
#	34025
#	52750
#	68412
#	87650
#	101587
#	123612
#	141475
#	157575
#	174987
#	193187
#	207237
#	220900
#	238325
#	254425
#
# Disc length: 4007 seconds
#
# Revision: 4
# Processed by: cddbd v1.5.1PL2 Copyright (c) Steve Scherf et al.
# Submitted via: CDex 1.51
#
DISCID=e20fa510
DTITLE=Various Artist - The Alltime Greatest Rock Classics 5 [Disc 1 of 2]
DYEAR=2003
DGENRE=Blues
TTITLE0=John Hiatt - Slow Turning [Album Version]
TTITLE1=Huey Lewis and The News - Power Of Love [Album Version]
TTITLE2=Icehouse - Street Cafe
TTITLE3=Eddie Money - Take Me Home Tonight [Album Version]
TTITLE4=Toto - Holyanna [Album Version]
TTITLE5=The Stranglers - Big In America [Album Version]
TTITLE6=Meat Loaf - Bat Out Of Hell [Album Version]
TTITLE7=Ram Jam - Black Betty [Album Version]
TTITLE8=The Outfield - Your Love [Album Version]
TTITLE9=Deacon Blue - Fergus Sings The Blues
TTITLE10=Electric Light Orchestra - Don't Bring Me Down
TTITLE11=Living Colour - Time's Up [Album Version]
TTITLE12=Mott The Hoople - Roll Away The Stone [Album Version]
TTITLE13=The Romantics - Talking In Your Sleep [Album Version]
TTITLE14=Suzi Quatro - Can The Can [Album Version]
TTITLE15=Deep Purple - Child In Time
EXTD=CDDBSort:various,alltime_greatest_rock_classics_5_disc_1_of_2 - YEAR: 2003
EXTT0=
EXTT1=
EXTT2=
EXTT3=
EXTT4=
EXTT5=
EXTT6=
EXTT7=
EXTT8=
EXTT9=
EXTT10=
EXTT11=
EXTT12=
EXTT13=
EXTT14=
EXTT15=
PLAYORDER=
